<svg version="1.1" id="Layer_1" xmlns="http://www.w3.org/2000/svg" x="0" y="0" viewBox="0 0 190.6 190.2"><style>.st1{fill:#fff}</style><path fill="#efa693" d="M.1 0h190.5v190.5H.1z"/><path class="st1" d="M107.6 122.3h4.2l-3.1 7.7v.1h1l3.4-8.6v-.1h-5.4zm54.3-16.8c0 1.3-.6 2.3-.6 2.3h4.7s-.6-.9-.6-2.2v-6.8l6.7-12.7c.6-1 1.4-1.9 2.5-2.6l1.1-.7h-6.3l1.1.7c.5.3.8.8.8 1.4 0 .6-.3 1.2-.5 1.6L165 97.6l-8-14.8h-4l8.9 16.2v6.5zm-74.1 15.7c-.8 0-1.5.3-2 .9-.6.6-.9 1.2-.9 2 0 .9.3 1.6.9 2.1.5.5 1.2.8 2 .8.7 0 1.3-.2 1.8-.6-.6 1.2-1.4 2.4-2.4 3.4l-.1.1.9.4c.6-.6 1.2-1.4 1.8-2.3.8-1.4 1.2-2.6 1.2-3.8 0-.8-.3-1.5-.8-2-.8-.7-1.5-1-2.4-1zm1.5 4.4c-.4.4-.9.6-1.5.6-.5 0-.9-.2-1.3-.5-.4-.4-.6-.9-.6-1.5 0-.5.2-1 .6-1.4.4-.4.8-.6 1.3-.6.6 0 1.2.2 1.5.6.4.4.5.8.5 1.4 0 .5-.2 1-.5 1.4zm-11.2-4.2h1v8.4h-1z"/><path class="st1" d="M6.8 6.6v177.2H184V6.6H6.8zm176.6 176.6H7.4V7.2h176.1v176z"/><path class="st1" d="M75.8 107.8l-1.2-.4c-1.1-.4-1.3-1.3-1.4-1.6v-.3c0-.4.1-.8.3-1.2l1.8-3.9c.4-.8 1.4-1.3 2.6-1.3.6 0 1.3.1 2.1.3l7.6 2 .1.1 3 6.4h4.1L83 82.7c-.4 0-.8.1-1.1.3-.5.5-.5 1.1-1.9 2.1l.5 1-6.2 13.7s-.1.4-1.9 4.3c-.3.5-.7 1.3-1.3 1.9-.3.3-1.7 1.5-3 1.7h7.7zm5.3-20.4l5.9 12.7-6.8-1.8c-.9-.2-1.6-.3-2.3-.3-.6 0-1.2.1-1.7.3l4.9-10.9zm50.6 20.4l-1.2-.4c-1.1-.4-1.3-1.3-1.4-1.6v-.3c0-.4.1-.8.3-1.2l1.8-3.9c.4-.8 1.4-1.3 2.6-1.3.6 0 1.3.1 2.1.3l7.6 2 .1.1 3 6.4h4.1L139 82.8c-.4 0-.8.1-1.1.3-.5.5-.5 1.1-1.9 2.1l.5 1-6.2 13.7s-.1.4-1.9 4.3c-.3.5-.7 1.3-1.3 1.9-.3.3-1.7 1.5-3 1.7h7.6zm5.3-20.4l5.9 12.7-6.8-1.8c-.9-.2-1.6-.3-2.3-.3-.6 0-1.2.1-1.7.3l4.9-10.9zM22.9 107.8l-1.2-.4c-1.1-.4-1.3-1.3-1.4-1.6v-.3c0-.4.1-.8.3-1.2l1.8-3.9c.4-.8 1.4-1.3 2.6-1.3.6 0 1.3.1 2.1.3l7.6 2 .1.1 3 6.4h4.1L30.1 82.7c-.4 0-.8.1-1.1.3-.5.5-.5 1.1-1.9 2.1l.5 1-6.2 13.7s-.1.4-1.9 4.3c-.3.5-.7 1.3-1.3 1.9-.3.3-1.7 1.5-3 1.7h7.7zm5.3-20.4l5.9 12.7-6.8-1.8c-.9-.2-1.6-.3-2.3-.3-.6 0-1.2.1-1.7.3l4.9-10.9zm17.3-.8c0-.1 1.1-2.9 5.9-2.9h3.2v21.8c0 1.3-.6 2.3-.6 2.3h4.7s-.6-.9-.6-2.3V83.7h3.2c4.8 0 5.8 2.8 5.9 2.9l.1.2h.7v-4H44.7v4h.7l.1-.2zm57.3 19c.7 0 1.1.2 1.7.6l.2.1c1.2.6 3 1.4 5.4 1.4 5.5 0 8.7-2.4 8.7-6.5 0-4.4-4.1-6.5-7.7-8.3-1.1-.6-2.2-1.1-3.1-1.7-1.8-1.2-2.8-2.7-2.8-4.2 0-2 1.8-3.2 4.5-3.2 1.7 0 3.2.5 4.5 1.4 1 .7 1.8 1.9 2.1 3.2l.1.3h.7v-4.4l-.6.3c-.2.1-.4.1-.6.1-.5 0-.8-.2-1.3-.5-.4-.2-.9-.5-1.6-.8-1.1-.4-2.2-.6-3.4-.6-3.7 0-7.6 2.2-7.6 6.1 0 4.1 3.8 6 7.1 7.6 1 .5 1.9 1 2.7 1.5 1.4.9 3.2 2.3 3.2 4.5 0 2.5-2.1 4.3-5.1 4.3-2.9 0-6.7-1.4-8.1-5.3l-.1-.3h-.7v4.7l.5-.2c.4 0 .8-.1 1.3-.1zM99.3 129c-.6 0-1.1-.2-1.6-.7-.3-.3-.5-.5-.6-.8v-.1l-.9.5v.1c.2.4.5.8.8 1.1.6.6 1.4.9 2.3.9.8 0 1.5-.3 2.1-.8.6-.5.9-1.2.9-1.8 0-1-.5-1.8-1.4-2.3.5-.5.8-1.1.8-1.6 0-.6-.2-1.2-.7-1.6-.4-.4-1-.6-1.7-.6-.9 0-1.8.4-2.4 1.3v.1l.8.6.1-.1c.5-.6 1-1 1.7-1 .4 0 .7.1 1 .4.2.3.4.6.4 1s-.2.7-.6 1.1c-.3.3-.6.5-.9.6l-.2.1.2.1c1.3.3 2 .9 2 1.9 0 .5-.2.9-.6 1.3-.5.1-1 .3-1.5.3z"/></svg>